<?xml version="1.0" encoding="UTF-8"?><svg id="Layer_1" xmlns="http://www.w3.org/2000/svg" viewBox="0 0 1000 1000"><defs><style>.cls-1{fill:#f9f9fa;}.cls-2{fill:#3a3a3a;}.cls-3{stroke-dasharray:0 0 4 12;stroke-linecap:round;stroke-width:4px;}.cls-3,.cls-4{fill:none;stroke:#fff;stroke-miterlimit:10;}.cls-4{stroke-width:7px;}</style></defs><circle class="cls-2" cx="500" cy="500" r="406.1"/><path class="cls-3" d="M859.15,500c0,198.35-160.8,359.15-359.15,359.15-476.41-18.92-476.27-699.46,0-718.3,198.35,0,359.15,160.8,359.15,359.15h0Z"/><circle class="cls-4" cx="500" cy="500" r="377"/><g><ellipse class="cls-1" cx="512.85" cy="209.77" rx="22.49" ry="12.8" transform="translate(13.02 448.93) rotate(-47.82)"/><path class="cls-1" d="M510.46,732.26c3.62-5.53,10.23,1.93-2.82,23.67-13.05,21.74-34.31,68.2-42.43,68.64-8.13,.44,21.16-48.99,25.98-57.59,8.04-14.35,13.79-26.36,19.28-34.72Z"/><path class="cls-1" d="M490.35,533.29c.03,.18,.29,.15,.29-.03-.05-16.64-3.25-162.32-101.24-191.28-93.33-27.58-113.06,26.67-114.89,30.6s.4,1.95,12.33-8.28c11.94-10.22,84.07-25.69,132.03,19.01,49.92,46.52,68.99,137.16,71.48,149.98Z"/><path class="cls-1" d="M268.24,384.69s12.38,62.35,108.33,55.08c91.98-6.97,91.6-41.01,91.41-43.81,0-.1,.08-.17,.17-.14,.96,.24,5.19,1.7,2.92,8.39-2.55,7.51-23.27,40.62-96.63,47.31-73.36,6.69-112.07-19.23-106.21-66.82Z"/><path class="cls-1" d="M373.81,686.46c-.06,.16,.16,.29,.26,.15,6.01-8.55,50.15-65.94,128.31-28.86,84.3,39.98,61.42,76.57,65.19,69.68,4.27-7.79,2.32-49.56-61.59-81.16-63.45-31.37-111.64-13.79-132.18,40.19Z"/><path class="cls-1" d="M368.94,616.76c-.05,.17,.18,.28,.27,.13,6.66-11.07,68.78-111.02,158.25-139.45,84.43-26.83,149.01-10.97,155.1,27.53,.98,6.19,6.59-36.38-62.18-53-54.96-13.28-212.32,29.52-251.44,164.79Z"/><path class="cls-1" d="M628.58,687.19s-13.06-91.88-143.49-135.8c-76.83-25.87-214.87,7.08-174.15,85.46,2.95,5.69-71.99-104.6,106.38-108.61,43.77-.98,200.7,38.97,211.26,158.95Z"/><path class="cls-1" d="M636.8,654.39s66.39-73.5-8.87-84.36c-74.84-10.8-153.46,49.41-189.29,190.69-.05,.18-.32,.13-.29-.05,17.22-135.72,101.97-199.29,138.07-211.61,45.53-15.54,159.17,.23,60.37,105.34Z"/><path class="cls-1" d="M411.62,685.01c.03-.14,.24-.15,.28-.01,2.63,7.51,37.41,103.32,105.5,126,10.6,3.53-42.66-.74-76.88-54.05-19.33-30.12-31.41-60.96-28.91-71.93Z"/></g><path class="cls-1" d="M365.05,253.21s19.09-10.71,107.78-10.26c88.7,.46,145.79,3.72,154.04,8.99,8.25,5.28,1.3,14.63-17.94,12.16-19.23-2.47-59.8-17.38-112.82-10.44-40.61,5.32-141.74,4.29-131.06-.47Z"/><path class="cls-1" d="M489.38,376.22c.2,6.88,13.78,2.61,14.42-23.92,.64-26.53,10.01-80.34,.55-84.3-9.46-3.96-11.38,56.19-12.05,66.53-1.12,17.26-3.22,31.28-2.92,41.69Z"/><path class="cls-1" d="M690.1,321.04c-10.29-6.31-110.79-6.07-128.08-2.78-17.29,3.29-3.48,8.99,7.83,9.35,11.3,.36,111.18,4.63,115.29,4.22,5.64-.55,15.39-4.41,4.96-10.8Z"/><path class="cls-1" d="M632.45,328.52c.07,0,.12,.04,.14,.1,.7,2.49,14.26,51.03,12.95,64.68-1.35,14.01-2.43,34.69-59.04,40.54-39.67,4.1-52.18-2.17-60.8-14.93-3.43-5.08-4.86-30.01,1.36-29.47,4.57,.4,1.37,21.14,14.6,25.55,11.56,3.85,33.94,4.17,52.94,2.65,19-1.52,33.77-10.8,30.85-35.83s-11.74-50.84-12.59-53.37c-.03-.1,.04-.19,.15-.19l19.45,.26Z"/></svg>